<!DOCTYPE svg PUBLIC "-//W3C//DTD SVG 1.1//EN" "http://www.w3.org/Graphics/SVG/1.1/DTD/svg11.dtd">

<!-- Uploaded to: SVG Repo, www.svgrepo.com, Transformed by: SVG Repo Mixer Tools -->
<svg width="199px" height="199px" viewBox="-2.4 -2.4 28.80 28.80" fill="none"
  xmlns="http://www.w3.org/2000/svg">

  <g id="SVGRepo_bgCarrier" stroke-width="0" transform="translate(0,0), scale(1)">

    <path transform="translate(-2.4, -2.4), scale(0.8999999999999999)"
      d="M16,29.054799548453754C18.615635006950665,30.04512972533773,22.234863180995703,30.758601123468395,24.216131958591422,28.784550875942458C26.31666406005128,26.69167182706607,23.688970893407728,22.77028960277116,24.984465517780116,20.10306792081232C26.335997319286314,17.320474417901718,31.414309631522553,16.862190920230532,31.508753988232222,13.770177809584235C31.59713333017492,10.876727173489822,27.392969711952006,9.950006753879562,25.357456533485315,7.8917177576776645C23.494557417824794,6.00797424210551,22.702525212935615,2.295879571315077,20.055378790563505,2.1886482041157524C17.20042527194764,2.0729989274061658,15.951230274789385,5.979852484226947,13.477894370739964,7.410497043298346C11.80576578320763,8.37770156327651,9.610956819208177,7.9660692730621125,8.064948158525759,9.124238439377653C6.313699563875397,10.436160019417308,4.989383376615744,12.248121600579825,4.264369209534022,14.312671025991921C3.43688814891192,16.66900504788172,2.2258159276201592,19.59431848127769,3.6734986339807687,21.629324552548248C5.179375370066296,23.746133910741825,8.77450054873217,22.44008722018165,10.99973382372885,23.780566043239688C13.11778024664235,25.056475588576507,13.687536149709892,28.17925585531232,16,29.054799548453754"
      fill="#91d7ee" strokewidth="0" />

  </g>

  <g id="SVGRepo_tracerCarrier" stroke-linecap="round" stroke-linejoin="round" stroke="#CCCCCC"
    stroke-width="0.144" />

  <g id="SVGRepo_iconCarrier">
    <path
      d="M3 21V17M9 21V13M15 21V15M21 21V11M8.43934 5.56066C8.71079 5.83211 9.08579 6 9.5 6C9.91421 6 10.2892 5.83211 10.5607 5.56066M8.43934 5.56066C8.16789 5.28921 8 4.91421 8 4.5C8 3.67157 8.67157 3 9.5 3C10.3284 3 11 3.67157 11 4.5C11 4.91421 10.8321 5.28921 10.5607 5.56066M8.43934 5.56066L5.56066 8.43934M5.56066 8.43934C5.28921 8.16789 4.91421 8 4.5 8C3.67157 8 3 8.67157 3 9.5C3 10.3284 3.67157 11 4.5 11C5.32843 11 6 10.3284 6 9.5C6 9.08579 5.83211 8.71079 5.56066 8.43934ZM10.5607 5.56066L13.4393 8.43934M13.4393 8.43934C13.1679 8.71079 13 9.08579 13 9.5C13 10.3284 13.6716 11 14.5 11C15.3284 11 16 10.3284 16 9.5C16 9.08579 15.8321 8.71079 15.5607 8.43934M13.4393 8.43934C13.7108 8.16789 14.0858 8 14.5 8C14.9142 8 15.2892 8.16789 15.5607 8.43934M15.5607 8.43934L18.4393 5.56066M18.4393 5.56066C18.7108 5.83211 19.0858 6 19.5 6C20.3284 6 21 5.32843 21 4.5C21 3.67157 20.3284 3 19.5 3C18.6716 3 18 3.67157 18 4.5C18 4.91421 18.1679 5.28921 18.4393 5.56066Z"
      stroke="#c400fa" stroke-width="2" stroke-linecap="round" stroke-linejoin="round" />
  </g>

</svg>