<!DOCTYPE svg PUBLIC "-//W3C//DTD SVG 1.1//EN" "http://www.w3.org/Graphics/SVG/1.1/DTD/svg11.dtd">
<!-- Uploaded to: SVG Repo, www.svgrepo.com, Transformed by: SVG Repo Mixer Tools -->
<svg width="800px" height="800px" viewBox="-2.4 -2.4 28.80 28.80" fill="none" xmlns="http://www.w3.org/2000/svg">
<g id="SVGRepo_bgCarrier" stroke-width="0">
<path transform="translate(-2.4, -2.4), scale(0.8999999999999999)" d="M16,28.07427078206092C18.024383610819925,27.741300693682156,19.07393621670092,25.32809216434856,21.0319639085792,24.71561715151205C23.808208502690977,23.847202240696983,27.334320084311845,25.699218605783873,29.564275415757113,23.831338062649593C31.65752639144812,22.077965376544714,31.67335814315469,18.72032508906954,31.437038796953857,16C31.209304419943283,13.378498420103949,29.802837231715287,11.054536940389024,28.268615985415323,8.916711258236322C26.83722853824833,6.922176993348227,25.169903921708077,4.97049703573983,22.882272109156478,4.07955503542677C20.707450600985936,3.232548181359591,18.322219459886963,4.372164800236484,16,4.138571171555668C13.34099019168557,3.871099573564546,10.624577035595426,1.3473156060124003,8.2690495797433,2.609601081319422C5.935545435850158,3.8600846535176867,6.451898294735226,7.443401608839775,5.345057685035984,9.848366186255584C4.359422158238882,11.989974027003045,2.3600872706175497,13.656159835626983,2.1063653379678726,15.999999999999998C1.843414301177863,18.42909706250314,2.4707402646758405,21.00805197337589,3.9244357860663612,22.971830249531187C5.331235175103167,24.872257153547817,7.734048830570806,25.624311499770418,9.912063410971308,26.54461548545525C11.872860570539974,27.373135853183328,13.899567648888256,28.419749347410512,16,28.07427078206092" fill="#9bd9ed" strokewidth="0"/>
</g>
<g id="SVGRepo_tracerCarrier" stroke-linecap="round" stroke-linejoin="round"/>
<g id="SVGRepo_iconCarrier"> <path fill-rule="evenodd" clip-rule="evenodd" d="M9.36264 3.53846C7.60261 3.53846 6.17582 4.96525 6.17582 6.72528C6.17582 8.4853 7.60261 9.91209 9.36264 9.91209C11.1227 9.91209 12.5494 8.4853 12.5494 6.72528C12.5494 4.96525 11.1227 3.53846 9.36264 3.53846ZM4.63736 6.72528C4.63736 4.11558 6.75294 2 9.36264 2C11.9723 2 14.0879 4.11558 14.0879 6.72528C14.0879 9.33497 11.9723 11.4506 9.36264 11.4506C6.75294 11.4506 4.63736 9.33497 4.63736 6.72528Z" fill="#030D45"/> <path fill-rule="evenodd" clip-rule="evenodd" d="M7.41153 15.4066C5.27249 15.4066 3.53846 17.1406 3.53846 19.2797C3.53846 19.3861 3.55682 19.4596 3.57526 19.5013C3.59011 19.5348 3.60106 19.5412 3.60591 19.544C4.13353 19.8541 5.65133 20.4615 9.36264 20.4615C13.0739 20.4615 14.5913 19.8543 15.1189 19.5443C15.1238 19.5414 15.1352 19.5348 15.15 19.5013C15.1685 19.4596 15.1868 19.3861 15.1868 19.2797C15.1868 17.1406 13.4528 15.4066 11.3137 15.4066H7.41153ZM2 19.2797C2 16.291 4.42282 13.8681 7.41153 13.8681H11.3137C14.3024 13.8681 16.7253 16.291 16.7253 19.2797C16.7253 19.7944 16.5513 20.4869 15.8984 20.8706C15.0381 21.3763 13.2089 22 9.36264 22C5.51639 22 3.68722 21.3763 2.82683 20.8706C2.17398 20.4869 2 19.7944 2 19.2797Z" fill="#030D45"/> <path fill-rule="evenodd" clip-rule="evenodd" d="M15.5431 3.88721C15.654 3.47709 16.0763 3.23448 16.4864 3.34532C18.1832 3.80392 19.3626 5.47949 19.3626 7.38461C19.3626 9.39763 17.9829 11.2126 16.0478 11.4451C15.626 11.4957 15.243 11.1949 15.1923 10.7731C15.1416 10.3513 15.4425 9.96824 15.8643 9.91758C16.8962 9.79362 17.8242 8.75741 17.8242 7.38461C17.8242 6.08213 17.0256 5.0847 16.085 4.8305C15.6749 4.71966 15.4323 4.29733 15.5431 3.88721Z" fill="#030D45"/> <path fill-rule="evenodd" clip-rule="evenodd" d="M17.8384 14.4901C17.9197 14.0731 18.3237 13.801 18.7407 13.8824C20.6337 14.2516 22 15.91 22 17.8388V18.3735C22 18.8469 21.858 19.5212 21.2404 19.9159C20.8246 20.1817 20.1798 20.4649 19.1855 20.666C18.7691 20.7503 18.3633 20.481 18.279 20.0646C18.1948 19.6482 18.464 19.2424 18.8804 19.1581C19.7287 18.9865 20.1871 18.7633 20.4118 18.6197L20.4136 18.6179C20.4153 18.6158 20.4213 18.6077 20.4287 18.5896C20.4451 18.5498 20.4615 18.4784 20.4615 18.3735V17.8388C20.4615 16.6462 19.6167 15.6207 18.4462 15.3924C18.0292 15.311 17.7571 14.9071 17.8384 14.4901Z" fill="#030D45"/> </g>
</svg>