<!DOCTYPE svg PUBLIC "-//W3C//DTD SVG 1.1//EN" "http://www.w3.org/Graphics/SVG/1.1/DTD/svg11.dtd">

<!-- Uploaded to: SVG Repo, www.svgrepo.com, Transformed by: SVG Repo Mixer Tools -->
<svg width="800px" height="800px" viewBox="-4.8 -4.8 57.60 57.60" fill="none"
  xmlns="http://www.w3.org/2000/svg" transform="rotate(0)matrix(1, 0, 0, 1, 0, 0)">

  <g id="SVGRepo_bgCarrier" stroke-width="0">

    <path transform="translate(-4.8, -4.8), scale(1.7999999999999998)"
      d="M16,28.50558402761817C18.66502283922197,28.197362676454034,21.181487537310787,27.64164704960583,23.56858350606828,26.417261501328703C26.373765667923088,24.97843183372738,29.777665501218703,23.785837233690703,30.926014271384886,20.8497560230264C32.085973130558706,17.883990307902252,30.32161849592297,14.69504355872579,29.337946838345474,11.666238364914136C28.354125276437994,8.636971603454647,28.01543493822958,4.839091082929289,25.22657296367217,3.3007117848934993C22.449604596354146,1.7688931841324236,19.148750732389253,3.93015187958989,16,4.308821080873411C13.349649059973721,4.627552653765892,10.686977846776387,4.238275922457127,8.256198339608268,5.341571398922163C5.36672966111183,6.653059221232505,2.0127762783519714,8.119158215238043,0.9883134246228931,11.12240735798487C-0.03797752432396595,14.131015626614756,2.1467794465421077,17.159736244866387,3.201927331671161,20.158345883760063C4.225867145892475,23.06826575361366,4.4589787351298495,26.64331040842148,7.0427910464943935,28.328540461487634C9.606851079062256,30.00088756105972,12.959037081119561,28.857284465566764,16,28.50558402761817"
      fill="#a7dbec" strokewidth="0" />

  </g>

  <g id="SVGRepo_tracerCarrier" stroke-linecap="round" stroke-linejoin="round" />

  <g id="SVGRepo_iconCarrier">
    <rect width="48" height="48" fill="white" fill-opacity="0.01" />
    <path
      d="M33.0499 7H38C39.1046 7 40 7.89543 40 9V42C40 43.1046 39.1046 44 38 44H10C8.89543 44 8 43.1046 8 42L8 9C8 7.89543 8.89543 7 10 7H16H17V10H31V7H33.0499Z"
      fill="#2F88FF" stroke="#000000" stroke-width="4" stroke-linejoin="round" />
    <rect x="17" y="4" width="14" height="6" stroke="#000000" stroke-width="4"
      stroke-linecap="round" stroke-linejoin="round" />
    <path d="M26.9996 19L19 27.0012H29.004L21.0003 35.0018" stroke="white" stroke-width="4"
      stroke-linecap="round" stroke-linejoin="round" />
  </g>

</svg>