<!DOCTYPE svg PUBLIC "-//W3C//DTD SVG 1.1//EN" "http://www.w3.org/Graphics/SVG/1.1/DTD/svg11.dtd">

<!-- Uploaded to: SVG Repo, www.svgrepo.com, Transformed by: SVG Repo Mixer Tools -->
<svg width="800px" height="800px" viewBox="-2.4 -2.4 28.80 28.80"
  id="meteor-icon-kit__regular-products" fill="none" xmlns="http://www.w3.org/2000/svg">

  <g id="SVGRepo_bgCarrier" stroke-width="0">

    <path transform="translate(-2.4, -2.4), scale(0.8999999999999999)"
      d="M16,24.899421657125156C17.628907670714202,24.25249826599268,19.354617119032905,24.317753377873647,21.0428232480738,23.8467861395495C23.4766508468765,23.167809181080337,26.690767804938357,23.62376677264501,28.097199505675754,21.52460590172857C29.460204308137524,19.490261577223645,27.465435946034425,16.809012062028124,27.398142111420725,14.361194572507667C27.318900487529667,11.478775492483347,29.027336089645814,8.4328189808252,27.667387074830586,5.890151549770122C26.271421282969065,3.280144325112842,23.270042730287276,1.6701165118993608,20.350346078987133,1.1840818740416346C17.547684027991053,0.717529694935326,14.675556962292047,1.8018922822216203,12.279323304060581,3.328538856606487C10.225371189821638,4.6371169864486745,9.01807840414196,6.851439478607034,7.989730242907898,9.05906174447917C7.1660319316955325,10.827348790387356,7.178244573185248,12.762530223956867,6.980795904520466,14.703234221959475C6.7923311197709895,16.55563648792242,6.792193068184335,18.313863135560453,6.858823506482921,20.174635425424924C6.969288174945523,23.259555761130393,4.75853757513284,27.807641890763872,7.500791497078618,29.225026576796807C10.383134391522386,30.714818840666247,12.98451867975457,26.097025079751603,16,24.899421657125156"
      fill="#9bd9ee" strokewidth="0" />

  </g>

  <g id="SVGRepo_tracerCarrier" stroke-linecap="round" stroke-linejoin="round" />

  <g id="SVGRepo_iconCarrier">

    <path fill-rule="evenodd" clip-rule="evenodd"
      d="M10 9C9.44771 9 9 9.44771 9 10V21C9 21.5523 9.44771 22 10 22H21C21.5523 22 22 21.5523 22 21V10C22 9.44771 21.5523 9 21 9H10ZM15 7V3C15 2.44772 14.5523 2 14 2H3C2.44772 2 2 2.44772 2 3V14C2 14.5523 2.44772 15 3 15H7V10C7 8.34315 8.34315 7 10 7H15ZM17 7H21C22.6569 7 24 8.34315 24 10V21C24 22.6569 22.6569 24 21 24H10C8.34315 24 7 22.6569 7 21V17H3C1.34315 17 0 15.6569 0 14V3C0 1.34315 1.34315 0 3 0H14C15.6569 0 17 1.34315 17 3V7Z"
      fill="#0173e4" />

  </g>

</svg>