<svg xmlns:xlink="http://www.w3.org/1999/xlink" xmlns="http://www.w3.org/2000/svg"
  viewBox="0 0 371.7912371134021 40.69073007222084" preserveAspectRatio="xMidYMid meet"
  class="css-hsh0k2" id="bhbfbceg" style="overflow: visible;" width="371.7912371134021"
  height="40.69073007222084">
  <defs id="SvgjsDefs1001"></defs>
  <g id="SvgjsG1007" featurekey="JQyOZB-0"
    transform="matrix(1.342603930375388,0,0,1.342603930375388,-9.398232634255258,-46.33374149351397)"
    fill="#FFD460">
    <g xmlns="http://www.w3.org/2000/svg" transform="translate(0,-952.36218)" fill="#FFD460">
      <path style="color:;enable-background:accumulate;"
        d="m 7.000009,1016.3622 16,-1 c 0,-3.0491 2,-8 2,-8 0,0 2.5409,0 5,0 2,-4 5,-12.00002 7,-12.00002 0,0 1,-4 3,-4 2.6314,0 16.99998,9.00002 16.99998,9.00002 l -10.99998,16 c 0,0 5.41738,-2.8351 10.99998,-4 1.988,-0.4148 -0.2344,-4.7065 2,-5 1.929,-0.2534 4,-1 5,-1 1,0 2.0324,-13.24872 4,-11.00002 7,8.00002 21.4047,17.28082 25.000002,21.00002 l -12.000002,-17.00002 -3,4.00002 -9,-13.00002 -11,7 -10.99998,-8 -3,2 -5,-3 -4,6 -5,-2 -12,16.00002 -3.3749,-0.6251 -7.6251,8.6251"
        fill="#FFD460" stroke="none" marker="none" visibility="visible" display="inline"
        overflow="visible"></path>
    </g>
  </g>
  <g id="SvgjsG1008" featurekey="SbCDzn-0"
    transform="matrix(1.714194342340977,0,0,1.714194342340977,134.5200260418838,-9.668055861933473)"
    fill="#FFD460">
    <path
      d="M9.54 15.82 l-5.76 0 l-1.5 4.18 l-2 0 l5.4 -14.36 l2.2 0 l5.2 14.36 l-2.12 0 z M4.38 14.1 l4.46 0 l-2.12 -6.32 l-0.04 0 z M28.560000000000002 20 l-1.88 0 l0 -8.48 c0 -0.42 0.04 -2.24 0.04 -3.58 l-0.04 0 l-4.04 12.06 l-1.92 0 l-4.04 -12.04 l-0.04 0 c0 1.32 0.04 3.14 0.04 3.56 l0 8.48 l-1.88 0 l0 -14.36 l2.78 0 l4.1 12.14 l0.04 0 l4.08 -12.14 l2.76 0 l0 14.36 z M33.76 5.640000000000001 l0 14.36 l-1.94 0 l0 -14.36 l1.94 0 z M39.260000000000005 13.84 l0 6.16 l-1.94 0 l0 -14.36 l6.64 0 c2.36 0 4.72 0.82 4.72 3.86 c0 2.12 -1.08 2.9 -2 3.44 c0.82 0.34 1.64 0.7 1.72 2.7 l0.12 2.6 c0.02 0.8 0.12 1.1 0.72 1.44 l0 0.32 l-2.38 0 c-0.28 -0.88 -0.34 -3.06 -0.34 -3.6 c0 -1.18 -0.24 -2.56 -2.56 -2.56 l-4.7 0 z M39.260000000000005 7.300000000000001 l0 4.88 l4.5 0 c1.42 0 2.92 -0.36 2.92 -2.48 c0 -2.22 -1.62 -2.4 -2.58 -2.4 l-4.84 0 z M59.22 13.48 l0 6.52 l-1.94 0 l0 -14.36 l9.94 0 l0 1.72 l-8 0 l0 4.4 l7.04 0 l0 1.72 l-7.04 0 z M77.32 15.82 l-5.76 0 l-1.5 4.18 l-2 0 l5.4 -14.36 l2.2 0 l5.2 14.36 l-2.12 0 z M72.16 14.1 l4.46 0 l-2.12 -6.32 l-0.04 0 z M81.4 7.359999999999999 l0 -1.72 l11.66 0 l0 1.72 l-4.86 0 l0 12.64 l-1.94 0 l0 -12.64 l-4.86 0 z M93.62 7.359999999999999 l0 -1.72 l11.66 0 l0 1.72 l-4.86 0 l0 12.64 l-1.94 0 l0 -12.64 l-4.86 0 z M115.1 15.82 l-5.76 0 l-1.5 4.18 l-2 0 l5.4 -14.36 l2.2 0 l5.2 14.36 l-2.12 0 z M109.94 14.1 l4.46 0 l-2.12 -6.32 l-0.04 0 z M129.88 11.58 l0 -5.94 l1.94 0 l0 14.36 l-1.94 0 l0 -6.7 l-7.5 0 l0 6.7 l-1.94 0 l0 -14.36 l1.94 0 l0 5.94 l7.5 0 z M137.1 5.640000000000001 l0 14.36 l-1.94 0 l0 -14.36 l1.94 0 z"
      fill="#FFD460"></path>
  </g>
  <g id="SvgjsG1009" featurekey="m0CQaI-0"
    transform="matrix(0.4064806640657499,0,0,0.4064806640657499,134.75611161609743,32.56111620943059)"
    fill="#FFD460">
    <path
      d="M0.6 20 l0 -2.24 l0.42 -0.28 l0 -8.96 l-0.42 -0.28 l0 -2.24 l7.28 0 l0 2.94 l-2.24 0 l-0.28 -0.42 l-1.82 0 l0 3.22 l3.22 0 l0 2.52 l-3.22 0 l0 3.22 l0.42 0.28 l0 2.24 l-3.36 0 z M32.2 20 l0 -2.24 l0.42 -0.28 l0 -8.96 l-0.42 -0.28 l0 -2.24 l6.4 0 l1.86 1.86 l0 5.1 l-1.08 1.1 l0.86 3.34 l0.5 0.36 l0 2.24 l-3.44 0 l0 -2.24 l0.36 -0.24 l-0.7 -2.7 l-1.82 0 l0 2.66 l0.42 0.28 l0 2.24 l-3.36 0 z M35.14 12.3 l2.42 0 l0.38 -0.38 l0 -3.02 l-0.38 -0.38 l-2.42 0 l0 3.78 z M66.74 20 l-1.86 -1.86 l0 -10.28 l1.86 -1.86 l4.54 0 l1.86 1.86 l0 10.28 l-1.86 1.86 l-4.54 0 z M67.78 17.48 l2.46 0 l0.38 -0.38 l0 -8.2 l-0.38 -0.38 l-2.46 0 l-0.38 0.38 l0 8.2 z M97.46 20 l0 -2.24 l0.42 -0.28 l0 -8.96 l-0.42 -0.28 l0 -2.24 l3.1 0 l2.92 7.48 l0 -4.96 l-0.42 -0.28 l0 -2.24 l3.36 0 l0 2.24 l-0.42 0.28 l0 11.48 l-2.68 0 l-2.92 -7.48 l0 4.96 l0.42 0.28 l0 2.24 l-3.36 0 z M133.26 20 l0 -2.24 l0.42 -0.28 l0 -8.96 l-0.42 0 l-0.28 0.42 l-2.24 0 l0 -2.94 l8.4 0 l0 2.94 l-2.24 0 l-0.28 -0.42 l-0.42 0 l0 8.96 l0.42 0.28 l0 2.24 l-3.36 0 z M163.45999999999998 14.120000000000001 l0 -2.24 l5.88 0 l0 2.24 l-5.88 0 z M193.66 20 l0 -2.24 l0.42 -0.28 l0 -8.96 l-0.42 -0.28 l0 -2.24 l7.28 0 l0 2.94 l-2.24 0 l-0.28 -0.42 l-1.82 0 l0 3.22 l3.22 0 l0 2.52 l-3.22 0 l0 3.22 l1.82 0 l0.28 -0.42 l2.24 0 l0 2.94 l-7.28 0 z M225.26 20 l0 -2.24 l0.42 -0.28 l0 -8.96 l-0.42 -0.28 l0 -2.24 l3.1 0 l2.92 7.48 l0 -4.96 l-0.42 -0.28 l0 -2.24 l3.36 0 l0 2.24 l-0.42 0.28 l0 11.48 l-2.68 0 l-2.92 -7.48 l0 4.96 l0.42 0.28 l0 2.24 l-3.36 0 z M258.54 20 l0 -2.24 l0.42 -0.28 l0 -8.96 l-0.42 -0.28 l0 -2.24 l6.68 0 l1.86 1.86 l0 10.28 l-1.86 1.86 l-6.68 0 z M261.48 17.48 l2.7 0 l0.38 -0.38 l0 -8.2 l-0.38 -0.38 l-2.7 0 l0 8.96 z M318.12000000000006 20 l0 -2.24 l0.42 -0.28 l0 -8.96 l-0.42 -0.28 l0 -2.24 l6.68 0 l1.86 1.86 l0 10.28 l-1.86 1.86 l-6.68 0 z M321.06000000000006 17.48 l2.7 0 l0.38 -0.38 l0 -8.2 l-0.38 -0.38 l-2.7 0 l0 8.96 z M350.9800000000001 20 l0 -2.24 l0.42 -0.28 l0 -8.96 l-0.42 -0.28 l0 -2.24 l7.28 0 l0 2.94 l-2.24 0 l-0.28 -0.42 l-1.82 0 l0 3.22 l3.22 0 l0 2.52 l-3.22 0 l0 3.22 l1.82 0 l0.28 -0.42 l2.24 0 l0 2.94 l-7.28 0 z M384.9200000000001 20 l-2.32 -11.48 l-0.42 -0.28 l0 -2.24 l2.48 0 l2 9.88 l2 -9.88 l2.48 0 l0 2.24 l-0.42 0.28 l-2.32 11.48 l-3.48 0 z M415.0600000000001 20 l0 -2.24 l0.42 -0.28 l0 -8.96 l-0.42 -0.28 l0 -2.24 l7.28 0 l0 2.94 l-2.24 0 l-0.28 -0.42 l-1.82 0 l0 3.22 l3.22 0 l0 2.52 l-3.22 0 l0 3.22 l1.82 0 l0.28 -0.42 l2.24 0 l0 2.94 l-7.28 0 z M446.66000000000014 20 l0 -2.24 l0.42 -0.28 l0 -8.96 l-0.42 -0.28 l0 -2.24 l3.36 0 l0 2.24 l-0.42 0.28 l0 8.96 l1.4 0 l0.28 -0.42 l2.24 0 l0 2.94 l-6.86 0 z M479.7000000000001 20 l-1.86 -1.86 l0 -10.28 l1.86 -1.86 l4.54 0 l1.86 1.86 l0 10.28 l-1.86 1.86 l-4.54 0 z M480.7400000000001 17.48 l2.46 0 l0.38 -0.38 l0 -8.2 l-0.38 -0.38 l-2.46 0 l-0.38 0.38 l0 8.2 z M510.42000000000013 20 l0 -2.24 l0.42 -0.28 l0 -8.96 l-0.42 -0.28 l0 -2.24 l6.4 0 l1.86 1.86 l0 5.38 l-1.86 1.86 l-3.46 0 l0 2.38 l0.42 0.28 l0 2.24 l-3.36 0 z M513.3600000000001 12.58 l2.42 0 l0.38 -0.38 l0 -3.3 l-0.38 -0.38 l-2.42 0 l0 4.06 z M543.0000000000001 20 l0 -2.24 l0.42 -0.28 l0 -8.96 l-0.42 -0.28 l0 -2.24 l7.28 0 l0 2.94 l-2.24 0 l-0.28 -0.42 l-1.82 0 l0 3.22 l3.22 0 l0 2.52 l-3.22 0 l0 3.22 l1.82 0 l0.28 -0.42 l2.24 0 l0 2.94 l-7.28 0 z M574.6000000000001 20 l0 -2.24 l0.42 -0.28 l0 -8.96 l-0.42 -0.28 l0 -2.24 l6.4 0 l1.86 1.86 l0 5.1 l-1.08 1.1 l0.86 3.34 l0.5 0.36 l0 2.24 l-3.44 0 l0 -2.24 l0.36 -0.24 l-0.7 -2.7 l-1.82 0 l0 2.66 l0.42 0.28 l0 2.24 l-3.36 0 z M577.5400000000001 12.3 l2.42 0 l0.38 -0.38 l0 -3.02 l-0.38 -0.38 l-2.42 0 l0 3.78 z"
      fill="#FFD460"></path>
  </g>
</svg>